<?xml version="1.0" encoding="UTF-8" standalone="no"?>
<svg
   version="1.1"
   x="0px"
   y="0px"
   viewBox="0 0 64 80"
   style="enable-background:new 0 0 64 64;"
   xml:space="preserve"
   id="svg14"
   sodipodi:docname="icon.svg"
   inkscape:version="1.3.2 (091e20e, 2023-11-25, custom)"
   xmlns:inkscape="http://www.inkscape.org/namespaces/inkscape"
   xmlns:sodipodi="http://sodipodi.sourceforge.net/DTD/sodipodi-0.dtd"
   xmlns="http://www.w3.org/2000/svg"
   xmlns:svg="http://www.w3.org/2000/svg"><defs
     id="defs14" /><sodipodi:namedview
     id="namedview14"
     pagecolor="#ffffff"
     bordercolor="#000000"
     borderopacity="0.25"
     inkscape:showpageshadow="2"
     inkscape:pageopacity="0.0"
     inkscape:pagecheckerboard="0"
     inkscape:deskcolor="#d1d1d1"
     showguides="false"
     inkscape:zoom="7.38125"
     inkscape:cx="10.973751"
     inkscape:cy="66.316681"
     inkscape:window-width="2560"
     inkscape:window-height="1377"
     inkscape:window-x="-8"
     inkscape:window-y="-8"
     inkscape:window-maximized="1"
     inkscape:current-layer="svg14" /><g
     id="g13"><path
       d="M 60,49 H 55.137 C 56.288,47.815 57,46.202 57,44.424 57,42.608 56.238,40.855 54.911,39.615 L 48.896,34.001 C 49.61,32.107 50,30.085 50,28 50,23.459 48.231,19.19 45.021,15.979 l -0.707,-0.707 -9.467,9.467 -6.879,-4.777 c -0.072,-0.654 -0.345,-1.29 -0.846,-1.791 -1.17,-1.17 -3.072,-1.17 -4.242,0 -1.17,1.17 -1.17,3.072 0,4.242 0.5,0.5 1.135,0.773 1.788,0.845 0.895697,-2.52612 2.872986,2.518902 4.756,6.904 l -9.15,9.15 0.707,0.707 C 24.19,43.231 28.459,45 33,45 c 2.474,0 4.86,-0.542 7.046,-1.54 L 45.586,49 H 4 c -1.654,0 -3,1.346 -3,3 v 12 c 0,1.654 1.346,3 3,3 h 1 v 1 c 0,1.654 1.346,3 3,3 h 48 c 1.654,0 3,-1.346 3,-3 v -1 h 1 c 1.654,0 3,-1.346 3,-3 V 52 c 0,-1.654 -1.346,-3 -3,-3 z M 24.293,19.586 c 0.195,-0.195 0.451,-0.292 0.707,-0.292 0.256,0 0.512,0.097 0.707,0.292 0.39,0.39 0.39,1.024 0,1.414 -0.391,0.391 -1.023,0.391 -1.414,0 -0.39,-0.39 -0.39,-1.024 0,-1.414 z m 2.439,3.146 c 0.135,-0.096 0.268,-0.196 0.389,-0.317 0.121,-0.121 0.222,-0.254 0.318,-0.389 l 5.994,4.128 -2.57,2.57 z M 23.124,39.29 44.29,18.124 C 46.69,20.858 48,24.328 48,28 48,32.007 46.439,35.773 43.606,38.606 40.773,41.439 37.007,43 33,43 29.328,43 25.858,41.69 23.124,39.29 Z m 23.949,8.369 -5.184,-5.184 c 1.12,-0.691 2.177,-1.501 3.131,-2.455 1.222,-1.222 2.232,-2.598 3.018,-4.083 l 5.508,5.14 C 54.47,41.94 55,43.16 55,44.424 55,46.947 52.947,49 50.424,49 H 50.31 c -1.205,0 -2.384,-0.488 -3.237,-1.341 z M 57,68 c 0,0.552 -0.448,1 -1,1 H 8 C 7.448,69 7,68.552 7,68 v -1 h 50 z m 4,-4 c 0,0.552 -0.448,1 -1,1 H 4 C 3.448,65 3,64.552 3,64 V 52 C 3,51.448 3.448,51 4,51 H 50.31 50.424 60 c 0.552,0 1,0.448 1,1 z"
       id="path1"
       sodipodi:nodetypes="scsccsccccsssccccsccsssscsssscsssssssssscsccccccssscscsccssssssssccsssssssccsss" /><path
       d="m 54,53 c -2.757,0 -5,2.243 -5,5 0,2.757 2.243,5 5,5 2.757,0 5,-2.243 5,-5 0,-2.757 -2.243,-5 -5,-5 z m 1,7.816 V 57 h -2 v 3.816 C 51.839,60.402 51,59.302 51,58 c 0,-1.654 1.346,-3 3,-3 1.654,0 3,1.346 3,3 0,1.302 -0.839,2.402 -2,2.816 z"
       id="path2" /><path
       d="m 5,63 h 6 V 53 H 5 Z m 2,-8 h 2 v 6 H 7 Z"
       id="path3" /><path
       d="m 13,63 h 6 V 53 h -6 z m 2,-8 h 2 v 6 h -2 z"
       id="path4" /><path
       d="M 25,63 H 43 V 53 H 25 Z m 2,-8 h 14 v 6 H 27 Z"
       id="path5" /><rect
       x="21"
       y="61"
       width="2"
       height="2"
       id="rect7" /><rect
       x="45"
       y="61"
       width="2"
       height="2"
       id="rect10" /><path
       d="m 53,44 c 0,-1.654 -1.346,-3 -3,-3 -1.654,0 -3,1.346 -3,3 0,1.654 1.346,3 3,3 1.654,0 3,-1.346 3,-3 z m -3,1 c -0.552,0 -1,-0.448 -1,-1 0,-0.552 0.448,-1 1,-1 0.552,0 1,0.448 1,1 0,0.552 -0.448,1 -1,1 z"
       id="path12" /><path
       d="m 44,28 c 0,2.938 -1.145,5.7 -3.222,7.777 C 38.701,37.855 35.938,39 33,39 32.691,39 32.386,38.987 32.082,38.962 l -0.164,1.994 C 32.276,40.985 32.637,41 33,41 36.473,41 39.737,39.647 42.192,37.191 44.647,34.737 46,31.473 46,28 Z"
       id="path13" /></g><text
     x="0"
     y="79"
     fill="#000000"
     font-size="5px"
     font-weight="bold"
     font-family="'Helvetica Neue', Helvetica, Arial-Unicode, Arial, Sans-serif"
     id="text13" /><text
     x="0"
     y="84"
     fill="#000000"
     font-size="5px"
     font-weight="bold"
     font-family="'Helvetica Neue', Helvetica, Arial-Unicode, Arial, Sans-serif"
     id="text14"
     clip-path="none" /></svg>
